<svg id="Layer_1" data-name="Layer 1" xmlns="http://www.w3.org/2000/svg" viewBox="0 0 66.02 21.49"><defs><style>.cls-1{fill:#fff;}</style></defs><path class="cls-1" d="M10.2,4C10.07,2.2,8.77.27,6.66.72h0c.24,0,.79.14.89,1a6.56,6.56,0,0,1-.39,2.52,14,14,0,0,1-1.3,2.9A19,19,0,0,1,.31,12.82,9.7,9.7,0,0,0,1.82,16.1C9.06,11.1,10.34,6.23,10.2,4ZM6.31.82h0c.56,0,1.49,1.26-.17,3.89l-.06.07A15.56,15.56,0,0,0,3.47,6.89a23.25,23.25,0,0,0-3.4,4.44,9.74,9.74,0,0,1,2-6.94A9.64,9.64,0,0,1,6.31.82Z" transform="translate(-0.02 -0.05)"/><path class="cls-1" d="M17,13.35c1.65.81,4,.65,4.64-1.4h0c-.13.2-.51.61-1.32.26a6.49,6.49,0,0,1-2-1.6A13.52,13.52,0,0,1,16.43,8,19.2,19.2,0,0,1,14.31.38,10,10,0,0,0,10.7.1C11.4,8.87,15,12.42,17,13.4ZM20.75,6.1a9.72,9.72,0,0,0-5-5.17A23.56,23.56,0,0,1,17.88,6.1a15.52,15.52,0,0,1,.52,3.32.11.11,0,0,0,0,.08c1.44,2.76,3.05,2.6,3.28,2.09h0a9.48,9.48,0,0,0-1-5.46Z" transform="translate(-0.02 -0.05)"/><path class="cls-1" d="M5.53,14.57C4,15.57,3,17.68,4.42,19.29h0A1,1,0,0,1,4.85,18a6.64,6.64,0,0,1,2.39-.92,14,14,0,0,1,3.16-.33,19,19,0,0,1,7.68,2,9.51,9.51,0,0,0,2.1-3C12.24,12,7.36,13.32,5.53,14.56ZM9.9,21.45a9.71,9.71,0,0,0,7-1.77A22,22,0,0,1,11.31,19a16,16,0,0,1-3.13-1.2H8.09C5,17.61,4.31,19.1,4.67,19.54h0a9.5,9.5,0,0,0,5.22,1.9Z" transform="translate(-0.02 -0.05)"/><path class="cls-1" d="M32.11,7.56l-.7,3.17-.7-3.17H28.86l-.7,3.17-.7-3.17H25.53l1.61,5.67H29l.75-3.2.77,3.2h1.89L34,7.56Zm21.2,2.54-.39,1.13h1v.4s-.12.2-.77.2-1.15-.48-1.15-1.37.48-1.36,1.12-1.36a1.54,1.54,0,0,1,1.13.48l1.21-1a2.94,2.94,0,0,0-2.34-1,2.87,2.87,0,0,0,0,5.74,3.35,3.35,0,0,0,2.59-1V10.1Zm-9.1,1.65h-1.3V11.1h1.53L45,9.64H43V9H45.2l.51-1.46H41.06v5.67H43.7Zm21.83,0H63.78V11.1h2V9.64h-2V9H66V7.56H61.93v5.67H66ZM61.31,7.56H59.48v3.36a.79.79,0,0,1-.17.61.69.69,0,0,1-.53.2.68.68,0,0,1-.52-.2.76.76,0,0,1-.19-.61V7.56H56.24v3.28a2.34,2.34,0,0,0,.61,1.82,3.2,3.2,0,0,0,3.87,0,2.35,2.35,0,0,0,.6-1.82V7.56Zm-12.81,0h-2l-2,5.67h2l.22-.79h1.62l.22.79h2l-2-5.67ZM47,11l.42-1.52L47.85,11Zm-6.57.74H38.59V7.56H36.74v5.67h3.71V11.75ZM35.89,10.4a.93.93,0,1,1,0-.19.61.61,0,0,1,0,.19" transform="translate(-0.02 -0.05)"/></svg>