<svg id="Layer_1" data-name="Layer 1" xmlns="http://www.w3.org/2000/svg" xmlns:xlink="http://www.w3.org/1999/xlink" viewBox="0 0 56.97 21.5"><defs><style>.cls-1{fill:none;}.cls-2{clip-path:url(#clip-path);}.cls-3{fill:#fff;}</style><clipPath id="clip-path" transform="translate(-3.88 0)"><rect class="cls-1" x="3.88" width="56.97" height="21.5"/></clipPath></defs><g class="cls-2"><path class="cls-3" d="M43.35,20.42H41.88l-.45-1.89H36.62l-.45,1.89H34.7a.54.54,0,0,0-.54.54v.54h9.73V21a.54.54,0,0,0-.54-.54" transform="translate(-3.88 0)"/><path class="cls-3" d="M54.68,20.55H46.9V9.28h7.78Zm-3.87.71a.24.24,0,0,1,0-.48.24.24,0,0,1,0,.48M29.36,17.47V5.79a.46.46,0,0,0-.46-.46H25.8V.84H52.25V8.58H46.69a.47.47,0,0,0-.46.46v8.43Zm-.65,2H7.31v-13h21.4ZM54.92,8.58H53.09v-8a.6.6,0,0,0-.6-.61H25.56a.6.6,0,0,0-.6.61V5.33H7.11a.47.47,0,0,0-.46.46v14.4H29.36V18.31H46.23V21a.47.47,0,0,0,.46.46h8.23a.46.46,0,0,0,.46-.46V9a.46.46,0,0,0-.46-.46" transform="translate(-3.88 0)"/><path class="cls-3" d="M60.54,20.42H56.78V13.49h3.76Zm-1.88.78a.24.24,0,0,1-.24-.24.24.24,0,0,1,.24-.24.23.23,0,0,1,.24.24.24.24,0,0,1-.24.24m-.4-8.11s0-.05.06-.05H59a.06.06,0,0,1,.06.05h0a.06.06,0,0,1-.06.06h-.69a.06.06,0,0,1-.06-.06Zm1.9-.59h-3a.69.69,0,0,0-.68.69v7.62a.69.69,0,0,0,.68.69h3a.69.69,0,0,0,.69-.69V13.19a.69.69,0,0,0-.69-.69" transform="translate(-3.88 0)"/><path class="cls-3" d="M21.2,20.61H14.82a.2.2,0,0,1-.2-.19H3.88A1.08,1.08,0,0,0,5,21.5H31.05a1.09,1.09,0,0,0,1.09-1.08H21.4a.2.2,0,0,1-.2.19" transform="translate(-3.88 0)"/></g></svg>