<svg id="Layer_1" data-name="Layer 1" xmlns="http://www.w3.org/2000/svg" xmlns:xlink="http://www.w3.org/1999/xlink" viewBox="0 0 71.19 42.35"><defs><style>.cls-1{fill:none;}.cls-2{clip-path:url(#clip-path);}.cls-3{fill:#fff;}</style><clipPath id="clip-path" transform="translate(-3.26 -4.47)"><rect class="cls-1" y="0.14" width="77.71" height="51"/></clipPath></defs><g class="cls-2"><g class="cls-2"><path class="cls-3" d="M35,26.25c-.17-.07-.46-.38,0-1.24L36.1,22.8c0-.07-.05-.16-.1-.1l-1,.93a15.16,15.16,0,0,0-1.39,2l-1.18,1.86a.16.16,0,0,1,.17.14.19.19,0,0,1,0,.08l-1.08,1.73c-.26.43.21.73.27.63,1.7-2.6,2.68-2.4,2.68-2.4L35,26.41a.11.11,0,0,0-.06-.16h0M38.82,4.47C29.14,4.47,21.3,12,21.3,21.21a16.18,16.18,0,0,0,3.42,9.94,3.49,3.49,0,0,0,1.44-1.1l3.26-4a.7.7,0,0,1,.26-.19l.49-.2,5.37-6.5.78-.59,1.59-2.12a1,1,0,0,1,.15-.14l.7-.49a.51.51,0,0,1,.58,0l.85.56a3.42,3.42,0,0,1,1.06,1.18l3.38,5.68a.55.55,0,0,0,.27.25,4.68,4.68,0,0,1,1.94,1.27c.41.42,2.18,2.32,4.68,5.28a3.5,3.5,0,0,0,1.4,1.09,16.15,16.15,0,0,0,3.42-9.93C56.34,12,48.5,4.47,38.82,4.47M26,22.14l-1.13-.36-.7.92V21.56l-1.14-.35,1.14-.35V19.72l.7.92L26,20.29l-.7.92Zm-.26,3.73L25.39,27,25,25.87h-1.2l1-.67-.37-1.09,1,.67,1-.67L26,25.2l1,.67ZM26,17.23l.37,1.08-1-.67-1,.67.37-1.08-1-.67H25l.37-1.09.37,1.09H27Zm1.92-2.46-.7-.92-1.14.35.7-.92-.7-.92,1.14.35.7-.92v1.14l1.14.35-1.14.35v1.14Zm3-4-.37,1.08-.37-1.08H29l1-.67L29.55,9l1,.67,1-.67-.37,1.09,1,.67ZM34.65,9l-.7.92V8.73l-1.14-.35L34,8V6.88l.7.93,1.13-.36-.7.93.71.92Zm4.77-1L39.79,9l-1-.68-1,.68.37-1.09-1-.67h1.19l.37-1.08.37,1.08h1.19Zm4.27.83V9.87L43,9l-1.14.35.71-.92-.71-.93L43,7.81l.7-.93V8l1.14.36Zm7.92,11.56,1.14.35.7-.92v1.14l1.14.35-1.14.35V22.7l-.7-.92-1.14.36.71-.93Zm-4.49-8.43-.37-1.08H45.56l1-.67L46.16,9l1,.67,1-.67-.37,1.09,1,.67H47.49Zm2.62,2.91V13.63l-1.14-.35,1.14-.35V11.79l.7.92,1.14-.35-.7.92.7.92-1.14-.35Zm2.14,1.79.37-1.09.37,1.09h1.2l-1,.67.37,1.08-1-.67-1,.67.37-1.08-1-.67Zm.74,9.31L52.25,27l-.37-1.08H50.69l1-.67-.37-1.09,1,.67,1-.67-.37,1.09,1,.67Zm-7.45,5a1,1,0,0,0,0-1l-.78-2c-.1-.25.13-.41.28-.24a22.19,22.19,0,0,1,1.85,2.29l.72,1.15c.62,0,2.34.08,4,.08a4.41,4.41,0,0,1-.46-.51c-2.82-3.34-4.61-5.19-4.62-5.21a3.25,3.25,0,0,0-1.27-.9l-.21-.09v.51s0,.06-.05.07a.07.07,0,0,1-.07,0L40.37,18v0a2.44,2.44,0,0,0-.75-.82l-.4-.27-2,4.36a.42.42,0,0,1,.43.41.45.45,0,0,1,0,.16l-1.83,4h1.68a5.23,5.23,0,0,1,1.88.35l.45.18a12.89,12.89,0,0,0-1.34,4,2.65,2.65,0,0,0,.11.74h3.08l-.15-.83a34.83,34.83,0,0,0,3.66.58ZM21.46,35.13c0-2.69-3-4-6.55-4-3.8,0-7.29,1.61-8.57,4.11a4.46,4.46,0,0,0-.53,2.14,3.1,3.1,0,0,0,.53,1.82,3.42,3.42,0,0,0,3,1.27c1.76,0,3.16-.93,3.16-2.54,0,0,0-.45-.52-.45s-.57.3-.55.45a2,2,0,0,1-2.12,2.27c-1.57,0-2.22-1.27-2.22-2.63,0-2.78,2.19-4.63,4.48-5.43a9.29,9.29,0,0,1,3.35-.56c2.58,0,4.7.95,4.7,3.49a4.33,4.33,0,0,1-4.1,4.1l.09-.29a15.3,15.3,0,0,1,1.93-4.53,3.18,3.18,0,0,1,.25-.33l-.13-.15a5.5,5.5,0,0,0-.56.38c-4.29,3.2-4.42,12.18-10.13,12.18a3.77,3.77,0,0,1-.58,0,1.93,1.93,0,0,1-1.82-2c0-.22.08-.5.08-.67a.56.56,0,0,0-.56-.56H4c-.51,0-.72.39-.73.94,0,1.58,1.19,2.51,3.08,2.68.21,0,.42,0,.64,0,4.46,0,7.19-3.22,8.35-7.13a10.32,10.32,0,0,0,1.74-.35c2.06-.55,4.39-1.87,4.39-4.21m42.43.94H62.32l-.35.79-.62,1.32h-.73l-.22.45h.76l-.92,1.93c-.65,1.36-1.67,2.7-2.26,2.7-.13,0-.21,0-.21-.17A1.55,1.55,0,0,1,58,42.5c.18-.41.48-1,.7-1.45a6.89,6.89,0,0,0,.85-2.11.86.86,0,0,0-1-.87,2.9,2.9,0,0,0-2,1l.39-.9H55.49L54.28,40.8c-.48.92-1.46,2.46-2.07,2.46a.18.18,0,0,1-.19-.2,1.19,1.19,0,0,1,.1-.32L52.89,41l1.3-2.86H52.6l-1.27,2.79c-.39.86-1.38,2.32-2,2.32a.2.2,0,0,1-.22-.17V43a1.82,1.82,0,0,1,.21-.62L50,41l1.37-2.86H49.75l-.31.65a1.53,1.53,0,0,1-1.26,1,.52.52,0,0,1-.5-.22A1.55,1.55,0,0,0,46,38.05a3.43,3.43,0,0,0-2.85,1.64,8.76,8.76,0,0,0-.94,2c-.56.89-1.15,1.58-1.62,1.58-.11,0-.19-.07-.19-.22a2.59,2.59,0,0,1,.21-.61l1-2.09a4,4,0,0,0,.48-1.5.77.77,0,0,0-.86-.78,3.2,3.2,0,0,0-2.19,1.09,1.22,1.22,0,0,0,0-.33.69.69,0,0,0-.79-.76,2.88,2.88,0,0,0-2,1.09l.42-1H35.25L34,40.79c-.58,1.23-1.51,2.46-2,2.46-.12,0-.19-.07-.19-.22A4.23,4.23,0,0,1,32.2,42l1.6-3.48c.12-.26-.65-.42-1.63-.42a4.68,4.68,0,0,0-2.8,1.08,2.47,2.47,0,0,1-1.12.64.12.12,0,0,1-.14-.09v0c0-.22.53-.82.53-1.28,0-.21-.12-.35-.42-.35a2.87,2.87,0,0,0-1.75,1.08l.42-1H25.48l-1.21,2.62c-.58,1.23-1.53,2.52-2.06,2.52-.11,0-.19-.06-.19-.21a4.17,4.17,0,0,1,.4-1.11L24,38.49c.12-.26-.65-.42-1.63-.42A4.93,4.93,0,0,0,18.79,40a5.66,5.66,0,0,0-1.4,3,1.05,1.05,0,0,0,1.17,1.17,2.74,2.74,0,0,0,2-1.16c0,.1,0,.2-.05.3a.75.75,0,0,0,.85.86A2.9,2.9,0,0,0,23.25,43l-.49,1.06h1.53l1.5-3.26c.5-1.06,1.06-1.61,1.22-1.61a.09.09,0,0,1,.08,0h0c0,.12-.24.42-.24.69s.16.49.58.49a2.11,2.11,0,0,0,1-.35A5.31,5.31,0,0,0,27.15,43a1,1,0,0,0,1.16,1.17,3.05,3.05,0,0,0,2-1.25,2.07,2.07,0,0,0,0,.35.83.83,0,0,0,.88.9c.65,0,1.17-.39,1.82-1.15l-.48,1h1.57L35.53,41c.62-1.35,1.47-2.07,1.89-2.07a.19.19,0,0,1,.21.16h0v0a1.39,1.39,0,0,1-.13.44l-2.06,4.55H37l1.47-3.17c.62-1.36,1.32-2,1.84-2,.15,0,.22.08.22.24a1.29,1.29,0,0,1-.14.5L39,42.5a2.39,2.39,0,0,0-.23.87c0,.44.25.83.95.83.92,0,1.61-.67,2.39-1.65v.21a1.53,1.53,0,0,0,1.74,1.47,3.74,3.74,0,0,0,3.31-2.46,5.27,5.27,0,0,0,.51-1.68,1,1,0,0,0,.51.1,1.41,1.41,0,0,0,.67-.16l-.24.51c-.29.57-.61,1.21-.85,1.75a2.72,2.72,0,0,0-.28,1,.87.87,0,0,0,1,.92,3.23,3.23,0,0,0,2.14-1.38h0a2.16,2.16,0,0,0-.06.51c0,.45.14.87.79.87A2.67,2.67,0,0,0,53.25,43l-.48,1h1.58l1.27-2.74c.72-1.55,1.44-2.49,2.1-2.49a.21.21,0,0,1,.22.19v0a7.7,7.7,0,0,1-.74,1.68c-.33.65-.58,1.15-.75,1.54a2.86,2.86,0,0,0-.27,1,.79.79,0,0,0,.89.84,3.54,3.54,0,0,0,2.34-1.48,2.76,2.76,0,0,0-.19.94,1.21,1.21,0,0,0,1.32,1.31A2.57,2.57,0,0,0,62,44.5,6.44,6.44,0,0,0,63.46,43l-.28-.25A5.7,5.7,0,0,1,62,44a1.36,1.36,0,0,1-.81.3c-.32,0-.53-.17-.53-.57a5,5,0,0,1,.49-1.66s.45-.93.85-1.82.68-1.47.75-1.62h1l.21-.45h-1Zm-44.56,7.2c-.22,0-.38-.07-.38-.35a6.69,6.69,0,0,1,1.45-3.09,2.78,2.78,0,0,1,2.08-1.26l-1,2.12c-.74,1.6-1.55,2.58-2.15,2.58m9.77,0c-.22,0-.38-.07-.39-.35a6.69,6.69,0,0,1,1.45-3.09,2.78,2.78,0,0,1,2.07-1.26l-1,2.12c-.76,1.63-1.53,2.58-2.14,2.58m17.35-4.13a9.83,9.83,0,0,1-1.66,4c-.35.47-.66.61-.92.61s-.47-.29-.41-.72a9.24,9.24,0,0,1,1.6-3.64c.41-.54.68-.76,1-.76s.4.25.39.56m24.38-1L72.27,35H70.56l-1.43,3.18H65.51l-.61,1.33h3.62l-1.44,3.18h1.71l1.44-3.18h3.62l.6-1.33Z" transform="translate(-3.26 -4.47)"/></g></g></svg>