<svg id="Layer_1" data-name="Layer 1" xmlns="http://www.w3.org/2000/svg" xmlns:xlink="http://www.w3.org/1999/xlink" viewBox="0 0 1019.33 1004.61"><defs><style>.cls-1{fill:none;}.cls-2{clip-path:url(#clip-path);}.cls-3{clip-path:url(#clip-path-2);}.cls-4{opacity:0.3;}.cls-5{clip-path:url(#clip-path-3);}.cls-6{fill:#253d8d;}</style><clipPath id="clip-path" transform="translate(11 95.62)"><rect class="cls-1" x="-11" y="-95.62" width="1019.33" height="1004.61"/></clipPath><clipPath id="clip-path-2" transform="translate(11 95.62)"><rect class="cls-1" x="-11" y="-95.62" width="1019.33" height="1004.61"/></clipPath><clipPath id="clip-path-3" transform="translate(11 95.62)"><rect class="cls-1" x="-20.03" y="-102.52" width="1037.38" height="1012.04"/></clipPath></defs><g class="cls-2"><g class="cls-3"><g class="cls-4"><g class="cls-5"><path class="cls-6" d="M465.47,93C459.65,6.87,399.07-83.25,300.31-62.27a.54.54,0,0,0,.08,1.07c11.11.55,36.62,6.33,41.45,47.11,3.61,30.41-4.3,73.57-18.3,117.65-15.47,48.74-38.13,98.93-60.61,135.79-101,165.67-260.16,264-260.16,264C16.2,560,45.79,619.61,74,657.5,412.58,424.61,472.44,196.17,465.47,93M283.34-57.59a5.09,5.09,0,0,1,1-.23c26-2.49,69.84,58.62-7.91,181.61a9.33,9.33,0,0,1-3,3.15c-33.23,20-73,51.65-121.83,98.64C59.85,313.81,3.22,419.47-7.08,433.22-15,397.51-21.37,259.86,84.6,109.08,142.86,26.17,219.24-35.74,283.34-57.59" transform="translate(11 95.62)"/><path class="cls-6" d="M782.3,527.9c77.51,38,185.84,30.63,217.05-65.39a.54.54,0,0,0-1-.46c-6,9.34-23.79,28.54-61.53,12.34-28.14-12.09-61.55-40.51-92.73-74.67-34.48-37.77-66.61-82.5-87.29-120.39C663.87,109,658.31-78,658.31-78,602.56-94.64,536.1-98.85,489.16-93.34,521.58,316.3,689.48,482.36,782.3,527.9M958.82,190c-77.6-167.17-200-230.48-234.88-241.47,6.77,15.8,69.95,117.67,100.47,241.27,16.25,65.82,23.77,116,24.51,154.84a9.18,9.18,0,0,0,1.24,4.14c67.64,128.83,142.49,121.41,153.32,97.65a4.66,4.66,0,0,0,.31-1c13.13-66.45-2.3-163.54-45-255.45" transform="translate(11 95.62)"/><path class="cls-6" d="M247.27,584.84C175.57,633,127.81,730.47,195.36,805.51a.54.54,0,0,0,.88-.6c-5.07-9.89-12.82-34.88,20.08-59.46,24.54-18.32,65.86-33.05,111-43,49.94-11,104.74-16.44,147.9-15.41,194,4.66,358.68,93.32,358.68,93.32,42.33-39.94,79.2-95.39,97.9-138.8-371-176.74-598.73-114.36-684.57-56.75M451.6,906.65C635.18,923,751.2,848.69,778.17,824c-17.07-2-136.89,1.74-259.19-33.63-65.13-18.83-112.38-37.43-146.34-56.19a9.39,9.39,0,0,0-4.21-1C223,727.32,192,795.85,207.2,817.1a3.93,3.93,0,0,0,.7.77c51,44.59,142.77,79.77,243.7,88.78" transform="translate(11 95.62)"/></g></g></g></g></svg>