<svg id="Layer_1" data-name="Layer 1" xmlns="http://www.w3.org/2000/svg" viewBox="0 0 65.68 22.28"><defs><style>.cls-1{fill:#fff;}</style></defs><path class="cls-1" d="M16.43,18.71c-.13-1.91-1.47-3.9-3.66-3.44,0,0,0,0,0,0,.24,0,.81.14.92,1.05A6.89,6.89,0,0,1,13.28,19a14.39,14.39,0,0,1-1.34,3,19.81,19.81,0,0,1-5.77,5.85,10,10,0,0,0,1.58,3.42c7.51-5.16,8.83-10.23,8.68-12.52Zm-4-3.34h0c.58-.06,1.55,1.3-.17,4a.46.46,0,0,1-.07.07,15.6,15.6,0,0,0-2.7,2.18A23.26,23.26,0,0,0,6,26.26a10,10,0,0,1,2-7.19,10,10,0,0,1,4.41-3.7Z" transform="translate(-5.86 -14.53)"/><path class="cls-1" d="M23.45,28.36c1.72.84,4.12.68,4.82-1.45,0,0,0,0,0,0-.13.2-.52.63-1.36.27a7,7,0,0,1-2.06-1.66,14.5,14.5,0,0,1-1.93-2.66,19.92,19.92,0,0,1-2.19-7.93A10.1,10.1,0,0,0,17,14.58c.72,9.09,4.44,12.77,6.5,13.78Zm3.92-7.49a10,10,0,0,0-5.21-5.36,23.59,23.59,0,0,1,2.23,5.35,16.29,16.29,0,0,1,.54,3.43.17.17,0,0,0,0,.1c1.5,2.85,3.16,2.69,3.4,2.16v0a9.9,9.9,0,0,0-1-5.66Z" transform="translate(-5.86 -14.53)"/><path class="cls-1" d="M11.59,29.62c-1.59,1.07-2.65,3.23-1.15,4.89,0,0,0,0,0,0-.11-.22-.29-.77.44-1.32a6.81,6.81,0,0,1,2.47-1,13.73,13.73,0,0,1,3.27-.34,19.73,19.73,0,0,1,8,2.07,10.23,10.23,0,0,0,2.17-3.08C18.54,27,13.49,28.34,11.59,29.62Zm4.53,7.13a10,10,0,0,0,7.24-1.83,23.33,23.33,0,0,1-5.75-.74,15.92,15.92,0,0,1-3.24-1.25.15.15,0,0,0-.09,0c-3.23-.13-3.91,1.39-3.58,1.86l0,0a9.85,9.85,0,0,0,5.4,2Z" transform="translate(-5.86 -14.53)"/><path class="cls-1" d="M39.38,24.65a1,1,0,1,0,.95,1,1,1,0,0,0-.95-1Z" transform="translate(-5.86 -14.53)"/><path class="cls-1" d="M34.9,26.24l.44-1.57.43,1.57Zm-.59-3.57-2,5.87h2l.22-.83h1.68l.23.83h2.09l-2.05-5.87Z" transform="translate(-5.86 -14.53)"/><polygon class="cls-1" points="37.26 12.47 37.26 8.14 35.34 8.14 35.34 14 39.19 14 39.19 12.47 37.26 12.47 37.26 12.47"/><path class="cls-1" d="M51.85,26.24l.44-1.57.43,1.57Zm-.58-3.57-2.05,5.87h2l.22-.83h1.68l.23.83h2.09l-2-5.87Z" transform="translate(-5.86 -14.53)"/><path class="cls-1" d="M64.76,26.15a.76.76,0,0,1-.19.62.8.8,0,0,1-1.08,0,.75.75,0,0,1-.19-.62V22.67H61.4v3.39A2.42,2.42,0,0,0,62,27.94a3.32,3.32,0,0,0,4,0,2.42,2.42,0,0,0,.63-1.88V22.67h-1.9v3.48Z" transform="translate(-5.86 -14.53)"/><polygon class="cls-1" points="63.34 12.47 63.34 11.8 65.42 11.8 65.42 10.29 63.34 10.29 63.34 9.65 65.68 9.65 65.68 8.14 61.43 8.14 61.43 14 65.68 14 65.68 12.47 63.34 12.47 63.34 12.47"/><polygon class="cls-1" points="43.32 11.8 43.84 10.29 41.74 10.29 41.74 9.65 44.07 9.65 44.59 8.14 39.82 8.14 39.82 14.01 42.55 14.01 43.08 12.47 41.74 12.47 41.74 11.8 43.32 11.8 43.32 11.8"/><path class="cls-1" d="M57.93,26.44H59v.42s-.13.2-.8.2S57,26.56,57,25.65s.53-1.42,1.19-1.42a1.6,1.6,0,0,1,1.17.5l1.26-1a3,3,0,0,0-2.43-1,3,3,0,1,0,0,5.92,3.49,3.49,0,0,0,2.68-1.05V25.27H58.33l-.4,1.17Z" transform="translate(-5.86 -14.53)"/></svg>