<svg id="Layer_1" data-name="Layer 1" xmlns="http://www.w3.org/2000/svg" viewBox="0 0 66.04 21.5"><defs><style>.cls-1{fill:#fff;}</style></defs><path class="cls-1" d="M15.89,18.94c-.13-1.84-1.43-3.77-3.54-3.32,0,0,0,0,0,0,.24,0,.79.14.89,1a6.57,6.57,0,0,1-.39,2.52,14.1,14.1,0,0,1-1.3,2.9A19,19,0,0,1,6,27.72,9.68,9.68,0,0,0,7.51,31c7.24-5,8.52-9.87,8.38-12.08ZM12,15.72h0c.56-.05,1.49,1.26-.17,3.89l-.06.07a15.56,15.56,0,0,0-2.61,2.11,23.11,23.11,0,0,0-3.4,4.44,9.71,9.71,0,0,1,2-6.94A9.6,9.6,0,0,1,12,15.72Z" transform="translate(-5.69 -14.9)"/><path class="cls-1" d="M22.67,28.25c1.65.81,4,.65,4.64-1.4,0,0,0,0,0,0-.13.2-.51.61-1.32.26a6.55,6.55,0,0,1-2-1.6,13.58,13.58,0,0,1-1.87-2.57A19.14,19.14,0,0,1,20,15.28,10,10,0,0,0,16.39,15c.7,8.77,4.29,12.32,6.28,13.3ZM26.44,21a9.73,9.73,0,0,0-5-5.17A23.33,23.33,0,0,1,23.57,21a15.67,15.67,0,0,1,.52,3.32.11.11,0,0,0,0,.08c1.44,2.76,3.05,2.6,3.28,2.09v0a9.44,9.44,0,0,0-1-5.46Z" transform="translate(-5.69 -14.9)"/><path class="cls-1" d="M11.22,29.47c-1.54,1-2.56,3.11-1.11,4.72,0,0,0,0,0,0a1,1,0,0,1,.43-1.27A6.64,6.64,0,0,1,12.93,32a14.46,14.46,0,0,1,3.16-.33,19.07,19.07,0,0,1,7.68,2,9.6,9.6,0,0,0,2.1-3c-7.94-3.78-12.82-2.45-14.65-1.21Zm4.37,6.88a9.7,9.7,0,0,0,7-1.77A22.3,22.3,0,0,1,17,33.86a15.6,15.6,0,0,1-3.13-1.2l-.09,0C10.7,32.51,10,34,10.36,34.44h0a9.55,9.55,0,0,0,5.22,1.9Z" transform="translate(-5.69 -14.9)"/><path class="cls-1" d="M37.8,28.46l-.7,3.17-.7-3.17H34.55l-.7,3.17-.7-3.17H31.22l1.61,5.67h1.89l.75-3.2.77,3.2h1.89l1.6-5.67ZM59,31l-.39,1.13h1.05v.4s-.12.2-.77.2-1.15-.48-1.15-1.37S58.22,30,58.86,30a1.54,1.54,0,0,1,1.13.48l1.21-1a2.92,2.92,0,0,0-2.34-1,2.87,2.87,0,1,0,0,5.74,3.36,3.36,0,0,0,2.59-1V31ZM49.9,32.65H48.6V32h1.53l.51-1.46h-2v-.62h2.25l.51-1.46H46.75v5.67h2.64l.51-1.48Zm21.83,0H69.47V32h2V30.54h-2v-.62h2.26V28.46H67.62v5.67h4.11V32.65ZM67,28.46H65.17v3.36a.78.78,0,0,1-.17.61.72.72,0,0,1-.53.2.69.69,0,0,1-.52-.2.78.78,0,0,1-.19-.61V28.46H61.93v3.28a2.34,2.34,0,0,0,.61,1.82,3.21,3.21,0,0,0,3.87,0,2.37,2.37,0,0,0,.6-1.82V28.46Zm-12.81,0H52.14l-2,5.67H52.1l.22-.79h1.62l.22.79h2l-2-5.67Zm-1.49,3.45.42-1.52.42,1.52Zm-6.57.74H44.28V28.46H42.43v5.67h3.71V32.65ZM41.58,31.3a.93.93,0,0,1-1.85,0,.93.93,0,1,1,1.85,0" transform="translate(-5.69 -14.9)"/><path class="cls-1" d="M49.45,24.63l-.32-.17-.21-.11-.22-.11a.23.23,0,0,1-.12-.18,2.48,2.48,0,0,1,0-.27,1.22,1.22,0,0,1,.25-.54.35.35,0,0,1,.59.06c.08.13.14.26.21.39l.06.12.74-.42,0-.07a.21.21,0,0,1,0-.06,2.07,2.07,0,0,0-.44-.58.55.55,0,0,0-.39-.14l-.56.09a1.78,1.78,0,0,0-.83.33,1.36,1.36,0,0,0-.24.24,1.42,1.42,0,0,0-.23.5,1.66,1.66,0,0,0-.1.54c0,.06,0,.13,0,.19a.44.44,0,0,0,.19.34l.45.27.39.2a.33.33,0,0,1,.18.31.82.82,0,0,1-.2.56c-.13.14-.26.17-.4,0a1.49,1.49,0,0,1-.32-.54c0-.1-.07-.2-.11-.31l-.21.13-.64.37a0,0,0,0,0,0,.05,1.63,1.63,0,0,0,.2.47,1.38,1.38,0,0,0,.32.36,1.09,1.09,0,0,0,.84.2A2,2,0,0,0,49,26.6a3.28,3.28,0,0,0,.38-.27,1.33,1.33,0,0,0,.26-.27,1.4,1.4,0,0,0,.24-.56,1.45,1.45,0,0,0,0-.29.49.49,0,0,0-.17-.35,1.09,1.09,0,0,0-.33-.23ZM59,23.27A.35.35,0,0,0,58.7,23a.45.45,0,0,0-.42.23,3.43,3.43,0,0,0-.23.52,2.08,2.08,0,0,0-.06.36h0v.15a.24.24,0,0,0,.12.2.43.43,0,0,0,.35,0,.4.4,0,0,0,.3-.23c.08-.18.15-.37.21-.55a1.22,1.22,0,0,0,.06-.42Zm1,.11a1.58,1.58,0,0,1-.17.71,2,2,0,0,1-.19.36,1.07,1.07,0,0,1-.63.45,1.43,1.43,0,0,1-.5.06,2.34,2.34,0,0,1-.7-.13h0a3,3,0,0,0-.11.32,2.32,2.32,0,0,0-.07.38.51.51,0,0,0,.08.34,1,1,0,0,0,.33.33.42.42,0,0,0,.36,0,2.79,2.79,0,0,0,.72-.34l.19-.12.21.31-.23.15-.66.4c-.18.11-.35.22-.53.31a.47.47,0,0,1-.37,0,1.59,1.59,0,0,1-.54-.3c-.12-.1-.24-.2-.35-.31a2.5,2.5,0,0,1-.22-.24.51.51,0,0,1-.09-.27,1.59,1.59,0,0,1,.07-.65c.08-.29.17-.59.26-.88s.12-.39.19-.58a1.27,1.27,0,0,1,.28-.46,1.1,1.1,0,0,1,.41-.26l.41-.19a3.37,3.37,0,0,1,.8-.3,1.26,1.26,0,0,1,.64,0,.53.53,0,0,1,.36.35,1.34,1.34,0,0,1,.1.52Zm-14.65.93a.28.28,0,0,0,.21.26.59.59,0,0,0,.37,0,.29.29,0,0,0,.19-.17c.07-.16.14-.34.2-.51s.06-.28.09-.42h0s0-.07,0-.11a.36.36,0,0,0-.36-.26.51.51,0,0,0-.38.24,3,3,0,0,0-.15.31.82.82,0,0,0-.1.26,3.42,3.42,0,0,0,0,.45ZM45,25.48a.62.62,0,0,0,.16.49.46.46,0,0,0,.28.19.5.5,0,0,0,.32,0,2.73,2.73,0,0,0,.61-.32l.15-.11.22.32-.52.33-.57.34a3.13,3.13,0,0,1-.45.22.61.61,0,0,1-.46,0,1.41,1.41,0,0,1-.46-.3,2.6,2.6,0,0,1-.38-.43.52.52,0,0,1-.07-.22,1.74,1.74,0,0,1,.08-.68c.06-.24.14-.48.21-.71l.24-.78a1.29,1.29,0,0,1,.33-.55A.8.8,0,0,1,45,23c.2-.08.4-.17.6-.24a4.11,4.11,0,0,1,.46-.15,2.36,2.36,0,0,1,.7-.05.55.55,0,0,1,.57.42,1.35,1.35,0,0,1,0,.53,1.41,1.41,0,0,1-.12.49,2,2,0,0,1-.23.46,1.23,1.23,0,0,1-.49.38,1.73,1.73,0,0,1-.44.14,1.66,1.66,0,0,1-.22,0h-.3l-.38,0a.05.05,0,0,0,0,0,1,1,0,0,0-.14.45Zm9.42-2.9c0-.11,0-.23.08-.34.1-.36.2-.73.31-1.1a2.56,2.56,0,0,1,.17-.43.94.94,0,0,1,.38-.36.32.32,0,0,1,.37,0,.54.54,0,0,1,.2.49,2.48,2.48,0,0,1,0,.27,3.53,3.53,0,0,1-.16.64l0,.08h.84a.06.06,0,0,0,.06-.05c0-.12.08-.24.12-.37s.08-.27.11-.41.07-.4.11-.6a.56.56,0,0,0-.06-.4,1.28,1.28,0,0,0-.29-.32.76.76,0,0,0-.5-.17,1.36,1.36,0,0,0-.49.08,3.71,3.71,0,0,0-.81.43q-.3.2-.6.42a.77.77,0,0,0-.3.39c-.06.18-.11.36-.16.53-.11.39-.22.78-.32,1.17,0,.05,0,.06-.08.06h-1.1v-.05a2.47,2.47,0,0,0,.06-.29c0-.22.07-.43.11-.65a.88.88,0,0,0,0-.48.72.72,0,0,0-.2-.28s0,0-.06,0l-.79.38a1.66,1.66,0,0,1,.06.21.67.67,0,0,1,0,.42c-.07.23-.14.47-.2.7,0,0,0,.05-.06.05h-.56l-.06.46H51c0,.09-.05.17-.07.25-.13.47-.27.94-.39,1.41s-.22.92-.32,1.37a.26.26,0,0,0,0,.21,1.58,1.58,0,0,0,.53.56A.35.35,0,0,0,51,27a1.11,1.11,0,0,0,.26-.07,6.36,6.36,0,0,0,.78-.49l.26-.19-.15-.31-.06,0a1.33,1.33,0,0,1-.46.23.17.17,0,0,1-.17,0,.27.27,0,0,1-.1-.22,2,2,0,0,1,.06-.34c.05-.23.11-.46.16-.68s.19-.72.28-1.07l.19-.67s0-.07.08-.07H53.3c-.37,1.27-.73,2.53-1.09,3.8h1l1.11-3.8h.14a1.75,1.75,0,0,1,.46,0,.38.38,0,0,1,.18.09.44.44,0,0,1,.07.21,1.09,1.09,0,0,1-.07.4c-.06.27-.13.54-.21.8L54.49,26a.14.14,0,0,0,0,.09.91.91,0,0,0,.15.35,1.18,1.18,0,0,0,.45.49.36.36,0,0,0,.33.06,1.08,1.08,0,0,0,.24-.12l.61-.43c.08,0,.08-.06,0-.14a1.07,1.07,0,0,0-.13-.21l-.27.15a.21.21,0,0,1-.3-.05.24.24,0,0,1,0-.24l.15-.51.24-.83.24-.89c.08-.32.17-.64.25-.95l0-.1h-2v-.05Zm10.27,1a.63.63,0,0,0-.28-.53.52.52,0,0,0-.42-.09.47.47,0,0,0-.33.16.67.67,0,0,0-.15.29c0,.17-.11.33-.16.5s-.11.42-.17.64-.12.36-.17.54a1.9,1.9,0,0,0-.1.57.46.46,0,0,0,.13.3.56.56,0,0,0,.43.17.74.74,0,0,0,.53-.23.66.66,0,0,0,.16-.31c.07-.23.15-.46.21-.69s.17-.68.25-1a1.37,1.37,0,0,0,.07-.29Zm3-3.87v.09l-.2,0a2.28,2.28,0,0,0-.56.23,1,1,0,0,0-.42.56c-.09.3-.19.59-.28.89s-.24.76-.35,1.14-.25.89-.37,1.34l-.24.94c0,.22-.11.43-.15.65a1,1,0,0,0,0,.45.18.18,0,0,0,.22.14,1.34,1.34,0,0,0,.39-.16l.42-.27c0,.12.11.24.18.37l-.24.16-.48.31-.36.21a.57.57,0,0,1-.55,0,1.7,1.7,0,0,1-.39-.27l-.17-.16-.39.2a3.09,3.09,0,0,1-.69.27.53.53,0,0,1-.35-.06,2,2,0,0,1-.5-.41,1.92,1.92,0,0,1-.18-.22l-.19.12-.75.41-.27.13a.51.51,0,0,1-.42,0,.86.86,0,0,1-.44-.4.57.57,0,0,1-.07-.22,1.32,1.32,0,0,1,.08-.56l.24-.87c.1-.33.19-.67.28-1l.3-1c.07-.24.15-.49.23-.74s.23-.76.36-1.14a4.76,4.76,0,0,1,.19-.53.88.88,0,0,1,.35-.39,2.07,2.07,0,0,1,.76-.29,4.21,4.21,0,0,1,.94-.07h0l0,.3a1.93,1.93,0,0,0-.54.12,1,1,0,0,0-.56.42,2.35,2.35,0,0,0-.14.37c-.1.3-.2.6-.29.91l-.27.94-.27,1-.24.92c-.08.29-.17.58-.25.87s-.09.3-.12.44a.24.24,0,0,0,.29.29,1,1,0,0,0,.41-.22l.11-.1a.33.33,0,0,0,.11-.21c.06-.26.11-.52.18-.78s.15-.57.24-.85a3.54,3.54,0,0,1,.34-.77,1.54,1.54,0,0,1,.64-.52,4.79,4.79,0,0,1,.73-.24.81.81,0,0,1,.41,0l.52.2c0-.16.09-.32.14-.49s.13-.45.19-.68l.27-.93a.94.94,0,0,1,.24-.45,2,2,0,0,1,.24-.16,2.89,2.89,0,0,1,.86-.33,5,5,0,0,1,.54-.08l.16,0c.05,0,.07,0,.07.07s0,.09,0,.14ZM43.84,23.28a.11.11,0,0,1,0-.07.52.52,0,0,1,.11-.1l.72-.72c.49-.49,1-1,1.46-1.48.16-.16.32-.34.47-.52a1.83,1.83,0,0,0,.36-.64,1.75,1.75,0,0,0,0-.46c0-.1,0-.2,0-.3s0-.25,0-.38c-.06-.29-.13-.59-.19-.88s-.09-.4-.13-.59-.07-.28-.1-.41l-.07,0-.41.19-.73.32-.48.21-.79.35-.62.27s0,0,0,.06,0,.16.08.24l0,.07.21-.08a1.56,1.56,0,0,1,.64-.09.4.4,0,0,1,.31.23,2,2,0,0,1,.18.62c0,.22.07.44.11.67a4.27,4.27,0,0,1,.08.87.65.65,0,0,1-.18.44c-.11.1-.21.21-.31.32l-.44.45-.37.36-.08.1q-.45-2.76-.91-5.5L39.37,18.4l.15.37.08,0a1.84,1.84,0,0,1,.73-.19.51.51,0,0,1,.39.15.71.71,0,0,1,.16.31c0,.15,0,.3.07.45l.12.69c0,.23.07.45.1.67a.07.07,0,0,1,0,.06l-.84.82-.37.38-.42.41h0q-.43-2.81-.89-5.62l-.15.07-.88.35-.7.29-.86.35-.51.21-.26.1v.07a1.18,1.18,0,0,1,0,.2s0,0,.06,0l.39-.13a1.4,1.4,0,0,1,.34-.08.38.38,0,0,1,.37.19,1.31,1.31,0,0,1,.2.54c.06.26.11.53.16.79s.09.46.13.69.09.43.13.65l.12.65.15.79.12.71.09.56.09.61.06.66a1.37,1.37,0,0,1-.15.82,2.35,2.35,0,0,1-.23.32l-.4.47c.09.11.19.21.29.32l.31-.26.53-.48.12-.12c.09-.09.19-.17.27-.26l.51-.56a4.94,4.94,0,0,0,.42-.57,1.5,1.5,0,0,0,.24-.68,3.54,3.54,0,0,0,0-.56.32.32,0,0,1,.1-.25l.54-.6.24-.26L41,22l.28-.3,0,0c0,.07,0,.14,0,.2s0,.31.07.47,0,.3.07.45.05.36.08.54l.09.6.09.6c0,.17,0,.35.08.53a1.11,1.11,0,0,1,0,.19,1.31,1.31,0,0,1-.12.51,4.47,4.47,0,0,1-.45.76,3.25,3.25,0,0,1-.23.29,0,0,0,0,0,0,.07l.25.27a0,0,0,0,1,0,0h0l.13-.11.35-.3.54-.48c.15-.13.28-.28.42-.42a3.06,3.06,0,0,0,.3-.32,5.46,5.46,0,0,0,.36-.45,2.71,2.71,0,0,0,.21-.37,1.36,1.36,0,0,0,.12-.45,5.16,5.16,0,0,0,.07-.79c0-.06,0-.13,0-.2Z" transform="translate(-5.69 -14.9)"/></svg>